PathFileType	4	(X/Y/Z)	c:\Git\powerlifing_model_clean\simulations\HC835B\Session1\HC835B_CUT_0004\marker_experimental.trc
DataRate	CameraRate	NumFrames	NumMarkers	Units	OrigDataRate	OrigDataStartFrame	OrigNumFrames
240.000000	240.000000	4	38	mm	240.000000	19	77
Frame#	Time	RPSI			LPSI			RASI			LASI			RTH1			RTH2			RTH3			RTH4			RSK1			RSK2			RSK3			RSK4			RCAL1			RCAL2			RCAL3			RST			RPT			RTN			RFMB			RSMB			RVMB			RFMH			RSMH			RVMH			RPM			LTH1			LTH2			LTH3			LTH4			LSK1			LSK2			LSK3			LSK4			LCAL1			LCAL2			LCAL3			LFMH			LVMH			
		X1	Y1	Z1	X2	Y2	Z2	X3	Y3	Z3	X4	Y4	Z4	X5	Y5	Z5	X6	Y6	Z6	X7	Y7	Z7	X8	Y8	Z8	X9	Y9	Z9	X10	Y10	Z10	X11	Y11	Z11	X12	Y12	Z12	X13	Y13	Z13	X14	Y14	Z14	X15	Y15	Z15	X16	Y16	Z16	X17	Y17	Z17	X18	Y18	Z18	X19	Y19	Z19	X20	Y20	Z20	X21	Y21	Z21	X22	Y22	Z22	X23	Y23	Z23	X24	Y24	Z24	X25	Y25	Z25	X26	Y26	Z26	X27	Y27	Z27	X28	Y28	Z28	X29	Y29	Z29	X30	Y30	Z30	X31	Y31	Z31	X32	Y32	Z32	X33	Y33	Z33	X34	Y34	Z34	X35	Y35	Z35	X36	Y36	Z36	X37	Y37	Z37	X38	Y38	Z38	

20	0.07916666666666666	213.7107849121094	1026.553588867188	-56.40501785278322	115.726921081543	993.0130615234377	-29.60614013671876	228.6595764160157	1013.166687011719	-272.7255554199219	21.29292488098145	920.198669433594	-206.8495635986329	381.6655578613282	780.3380126953127	-340.9767150878907	351.4135437011719	788.169616699219	-393.0855407714845	377.0859069824219	714.2185668945314	-393.2456054687501	338.9072875976563	716.6560058593751	-437.5190429687501	483.7194824218751	292.7068481445313	-429.3407592773439	472.2827148437501	282.5665893554688	-489.0142517089845	493.7907714843751	239.3517456054688	-451.7982482910157	470.9884033203126	226.0894012451172	-505.8125610351564	513.1929321289064	91.73946380615236	-400.6156311035157	479.8370361328126	54.41836166381837	-397.3497924804689	542.5383911132814	54.15811920166017	-411.8664855957032	444.2930908203126	65.26490020751955	-460.8426513671876	550.7197875976564	63.77828598022462	-476.0423889160157	443.7955627441407	81.34164428710939	-519.4388427734376	442.2529296875001	70.39473724365236	-553.5323486328126	485.158660888672	94.31820678710939	-570.8789062500001	552.3858642578126	39.5100212097168	-519.9375000000001	432.4948730468751	51.0367889404297	-604.9273071289064	479.9119567871095	61.51281356811525	-632.3192749023439	547.8457031250001	33.84180068969727	-599.3887329101564	453.8704223632814	47.12476348876954	-687.4758300781251	117.1318588256836	611.5589599609376	-121.3319473266602	102.3329086303711	598.9203491210939	-178.7726287841797	146.9859161376953	536.6900634765626	-151.0581970214844	142.7483520507813	532.4553833007814	-211.9720153808594	356.6625671386719	480.3934936523439	97.39331054687503	373.1211242675782	431.2565917968751	110.3358230590821	386.1996459960939	466.0931701660157	143.3298950195313	416.0383605957032	418.7805175781251	147.3293914794922	474.7676696777345	546.7300415039064	237.3360900878907	463.9624328613282	545.9541625976564	283.7188415527344	514.7187500000001	560.8992309570314	258.4803161621094	602.4863891601564	357.6587219238282	271.8888549804688	513.5450439453126	366.1085205078126	336.0906066894532	
21	0.08333333333333333	210.3308410644532	1022.956237792969	-73.81134033203126	112.4513168334961	989.0778808593752	-47.2970199584961	225.3905792236329	1011.339904785156	-291.2867431640626	16.61651992797852	918.3432617187502	-225.8211669921876	378.3247985839844	776.408386230469	-356.5515747070313	348.6546020507813	783.1592407226565	-409.2447204589845	374.1292114257813	709.0623168945314	-407.369110107422	337.3890991210938	710.9928588867189	-452.9225463867189	483.3631591796876	292.7184448242188	-437.5392150878907	470.2720336914064	278.8516845703126	-496.1265258789064	493.4447631835939	238.3094329833985	-456.9877929687501	469.5897216796876	221.446029663086	-509.5922851562501	515.1481933593751	90.9365692138672	-400.0606994628907	481.4116821289064	54.1862030029297	-396.7028198242189	544.0407104492189	53.09491348266603	-411.3932189941407	446.8003234863282	64.60428619384767	-458.8279724121095	552.7091674804689	62.90581130981447	-475.4096679687501	444.8703613281251	80.6764373779297	-518.1241455078126	443.6746826171876	69.4829559326172	-552.1096191406251	486.6415100097657	93.45582580566408	-569.1531982421876	554.0219116210939	38.52155685424805	-519.6567382812501	433.1739807128907	50.62377166748048	-604.0880126953126	480.7381896972657	62.23939895629884	-631.1848754882814	549.1005249023439	32.8164176940918	-599.2420654296876	454.4747619628907	46.37160873413087	-686.0847167968751	109.7542114257813	607.6638183593751	-145.7500762939453	94.09256744384767	596.3996582031251	-203.254867553711	138.4254760742188	533.1234741210939	-177.1945343017578	133.2937469482422	530.0009765625001	-238.0325317382813	345.8206481933594	481.4972534179689	65.06631469726564	362.5360107421876	432.827362060547	79.01448059082033	375.4588623046876	468.4170532226564	111.3197250366211	405.5203247070314	421.4050903320314	116.2083129882813	463.9872436523439	551.3973999023439	204.8352661132813	452.9244995117189	550.8850708007814	251.1539459228516	504.0121154785157	565.7329101562501	226.1366882324219	590.9620971679689	362.3246154785157	241.1704254150391	501.5276489257814	371.3968505859376	304.8218383789063	
22	0.08749999999999999	207.1051788330079	1019.436584472656	-90.66073608398439	109.2589721679688	985.101989746094	-64.43520355224611	222.0801849365235	1009.458984375	-309.3614501953126	12.27780437469483	916.2893676757815	-243.8989868164063	374.6119079589844	773.7468261718752	-372.2543640136719	346.2218933105469	779.7496337890627	-425.8150634765626	370.7906799316407	705.2157592773439	-421.4865722656251	336.1904602050782	706.9523925781251	-468.9073791503907	481.7596130371095	295.6544799804688	-445.413055419922	467.4331665039064	278.6696777343751	-502.917205810547	492.0846252441407	240.424789428711	-462.3731384277345	467.4135131835939	220.8185119628907	-513.6539306640626	515.4252929687501	91.31255340576173	-400.2673950195314	481.3989562988282	54.14904022216798	-396.6153869628907	544.3653564453126	53.44540405273439	-411.5039672851564	447.6069335937501	63.85950851440431	-457.3169860839845	552.5407714843751	63.21026992797853	-475.6241760253907	443.8877868652345	79.67136383056642	-517.7104492187501	442.4209899902345	68.91918182373048	-551.5849609375001	485.3460998535157	93.25098419189455	-569.0959472656251	553.5723266601564	38.75076293945313	-519.7730102539064	430.7139892578126	49.23370361328126	-603.6896362304689	478.8162536621095	61.32059478759767	-630.4927368164064	547.9558715820314	33.67398834228516	-599.2542114257814	452.7156677246095	45.70274734497071	-685.7994384765626	102.1604766845703	604.2648925781251	-170.1177062988282	85.74424743652345	594.0340576171876	-227.6161651611329	129.5988311767578	529.9268798828126	-203.1005249023438	123.676628112793	527.9589843750001	-263.8782958984376	334.7718200683594	482.4848632812501	32.72856903076173	351.6587524414063	434.1315917968751	47.52547836303712	364.3907775878907	470.1353759765626	79.15488433837892	394.8719787597657	423.4099121093751	84.75790405273439	453.288543701172	555.4000854492189	172.0272521972657	441.9250488281251	555.0632324218751	218.4620361328126	493.1158447265626	569.5003051757814	193.5769653320313	579.2681274414064	365.7367553710938	209.7065734863282	489.3800048828126	375.5112915039063	272.8551635742188	
23	0.09166666666666666	204.0148620605469	1015.927551269531	-107.1077880859375	106.0721511840821	981.0877075195315	-81.12551116943361	218.6317443847657	1007.290771484375	-327.0744628906251	8.362561225891115	914.244323730469	-261.4819030761719	369.9259948730469	772.814880371094	-388.3799438476564	343.1703491210938	778.2844848632815	-442.7519836425782	366.4024963378907	703.4613037109376	-436.585906982422	333.4723205566407	705.0482788085939	-485.2222595214845	479.7867126464845	299.5302124023438	-454.3925170898439	463.5039062500001	279.8438720703126	-510.5641174316407	489.223602294922	243.4658813476563	-469.0676574707032	463.9653625488282	221.5928649902344	-519.1002807617189	514.2231445312501	92.44849395751955	-401.2550354003907	480.4605102539064	54.57029342651369	-397.1719055175782	543.5445556640626	54.69346237182619	-411.978729248047	446.2052001953126	63.29738998413087	-458.4863891601564	551.4053955078126	64.10504150390626	-476.1673583984376	442.5790100097657	78.50618743896486	-518.8150024414064	441.4675292968751	68.10130310058595	-552.7385864257814	484.2047729492189	92.59625244140626	-570.0753173828126	553.0683593750001	39.52306747436524	-520.0021362304689	429.6891174316407	47.91139221191407	-604.2703247070314	478.5932922363282	59.80381774902345	-631.7493896484376	547.9528808593751	33.68719482421876	-599.4073486328126	453.0951538085939	43.31393432617188	-686.9269409179689	94.44052886962892	600.9494628906251	-194.5878601074219	77.44232177734376	592.4958496093751	-251.8754119873047	120.6797866821289	527.1819458007814	-229.0945892333985	114.1163940429688	526.1216430664064	-289.9038696289063	323.4566345214844	482.9309387207032	0.04044458642601968	340.5945434570313	434.855194091797	15.54807662963868	353.0699768066407	471.370819091797	46.71916580200196	383.7859191894532	425.091033935547	53.09299087524415	442.4663391113282	558.3530883789064	139.3300323486328	431.0372924804689	558.1273803710939	185.8281402587891	482.4102172851564	572.3175659179689	160.9493255615235	567.3807983398439	368.0807189941407	177.5459136962891	477.6116027832032	378.3099975585938	241.0702362060547	
